<svg xmlns="http://www.w3.org/2000/svg" viewBox="0 0 800 400" fill="none">
  <defs>
    <linearGradient id="bg" x1="0" y1="0" x2="0" y2="1">
      <stop offset="0" stop-color="#141414"/>
      <stop offset="1" stop-color="#0e0e0e"/>
    </linearGradient>
  </defs>
  <rect width="800" height="400" rx="24" fill="url(#bg)"/>
  <g opacity="0.2" stroke="#2a2a2a" stroke-width="1">
    <path d="M80 80h640"/>
    <path d="M80 160h640"/>
    <path d="M80 240h640"/>
    <path d="M80 320h640"/>
  </g>

  <g stroke="#3fa37a" stroke-width="2" opacity="0.8">
    <path d="M170 120L370 200"/>
    <path d="M310 120L380 200"/>
    <path d="M450 120L420 200"/>
    <path d="M590 120L430 200"/>
  </g>

  <g stroke="#2a2a2a" stroke-width="2" fill="#151515">
    <rect x="110" y="60" width="120" height="60" rx="16"/>
    <rect x="250" y="60" width="120" height="60" rx="16"/>
    <rect x="390" y="60" width="120" height="60" rx="16"/>
    <rect x="530" y="60" width="120" height="60" rx="16"/>
  </g>
  <g fill="#3fa37a">
    <circle cx="170" cy="90" r="10"/>
    <circle cx="310" cy="90" r="10"/>
    <circle cx="450" cy="90" r="10"/>
    <circle cx="590" cy="90" r="10"/>
  </g>

  <circle cx="400" cy="210" r="34" fill="#0f0f0f" stroke="#3fa37a" stroke-width="3"/>
  <circle cx="400" cy="210" r="6" fill="#44b381"/>

  <rect x="220" y="260" width="360" height="90" rx="18" fill="#151515" stroke="#2a2a2a" stroke-width="2"/>
  <g fill="#3fa37a" opacity="0.9">
    <circle cx="270" cy="305" r="6"/>
    <circle cx="310" cy="305" r="6"/>
    <circle cx="350" cy="305" r="6"/>
    <circle cx="390" cy="305" r="6"/>
    <circle cx="430" cy="305" r="6"/>
    <circle cx="470" cy="305" r="6"/>
    <circle cx="510" cy="305" r="6"/>
  </g>
</svg>
