<svg xmlns="http://www.w3.org/2000/svg" viewBox="0 0 800 400" fill="none">
  <defs>
    <linearGradient id="bg" x1="0" y1="0" x2="0" y2="1">
      <stop offset="0" stop-color="#141414"/>
      <stop offset="1" stop-color="#0e0e0e"/>
    </linearGradient>
  </defs>
  <rect width="800" height="400" rx="24" fill="url(#bg)"/>

  <path d="M175 120h80l40-30 50 70 40-45 60 60 90-90 60 60" stroke="#3fa37a" stroke-width="3" fill="none"/>

  <g stroke="#2a2a2a" stroke-width="2" fill="#151515">
    <rect x="120" y="190" width="560" height="56" rx="14"/>
    <rect x="120" y="255" width="560" height="56" rx="14"/>
    <rect x="120" y="320" width="560" height="56" rx="14"/>
  </g>

  <g fill="#3fa37a">
    <circle cx="160" cy="218" r="8"/>
    <circle cx="160" cy="283" r="8"/>
    <circle cx="160" cy="348" r="8"/>
  </g>
  <g stroke="#3fa37a" stroke-width="3" stroke-linecap="round" stroke-linejoin="round">
    <path d="M210 218l8 8 16-18"/>
    <path d="M210 283l8 8 16-18"/>
    <path d="M210 348l8 8 16-18"/>
  </g>

  <g stroke="#2a2a2a" stroke-width="2" opacity="0.7">
    <path d="M280 218h340"/>
    <path d="M280 283h280"/>
    <path d="M280 348h310"/>
  </g>
</svg>
