<svg xmlns="http://www.w3.org/2000/svg" viewBox="0 0 800 400" fill="none">
  <defs>
    <linearGradient id="bg" x1="0" y1="0" x2="0" y2="1">
      <stop offset="0" stop-color="#141414"/>
      <stop offset="1" stop-color="#0e0e0e"/>
    </linearGradient>
  </defs>
  <rect width="800" height="400" rx="24" fill="url(#bg)"/>

  <g stroke="#2a2a2a" stroke-width="2" fill="#151515">
    <rect x="170" y="90" width="460" height="70" rx="16"/>
    <rect x="170" y="170" width="460" height="70" rx="16"/>
    <rect x="170" y="250" width="460" height="70" rx="16"/>
  </g>

  <g fill="#3fa37a" opacity="0.9">
    <circle cx="210" cy="125" r="6"/>
    <circle cx="230" cy="125" r="6"/>
    <circle cx="250" cy="125" r="6"/>
    <circle cx="210" cy="205" r="6"/>
    <circle cx="230" cy="205" r="6"/>
    <circle cx="250" cy="205" r="6"/>
    <circle cx="210" cy="285" r="6"/>
    <circle cx="230" cy="285" r="6"/>
    <circle cx="250" cy="285" r="6"/>
  </g>

  <g>
    <rect x="530" y="190" width="100" height="100" rx="18" fill="#0f0f0f" stroke="#3fa37a" stroke-width="3"/>
    <path d="M550 175c0-26 14-40 30-40s30 14 30 40v18h-60v-18z" stroke="#3fa37a" stroke-width="3" fill="none"/>
    <circle cx="580" cy="240" r="9" fill="#3fa37a"/>
    <rect x="576" y="248" width="8" height="20" rx="4" fill="#3fa37a"/>
  </g>
</svg>
