<svg xmlns="http://www.w3.org/2000/svg" viewBox="0 0 800 400" fill="none">
  <defs>
    <linearGradient id="bg" x1="0" y1="0" x2="0" y2="1">
      <stop offset="0" stop-color="#141414"/>
      <stop offset="1" stop-color="#0e0e0e"/>
    </linearGradient>
  </defs>
  <rect width="800" height="400" rx="24" fill="url(#bg)"/>

  <g stroke="#2a2a2a" stroke-width="2">
    <path d="M120 320h560"/>
    <path d="M120 260h560"/>
    <path d="M120 200h560"/>
  </g>

  <g fill="#151515" stroke="#2a2a2a" stroke-width="2">
    <rect x="170" y="210" width="90" height="110" rx="12"/>
    <rect x="300" y="170" width="90" height="150" rx="12"/>
    <rect x="430" y="130" width="90" height="190" rx="12"/>
    <rect x="560" y="230" width="90" height="90" rx="12"/>
  </g>

  <g fill="#3fa37a">
    <rect x="170" y="250" width="90" height="70" rx="10"/>
    <rect x="300" y="220" width="90" height="100" rx="10"/>
    <rect x="430" y="180" width="90" height="140" rx="10"/>
    <rect x="560" y="260" width="90" height="60" rx="10"/>
  </g>

  <g fill="#0f0f0f" stroke="#3fa37a" stroke-width="2">
    <circle cx="215" cy="190" r="18"/>
    <circle cx="345" cy="150" r="18"/>
    <circle cx="475" cy="110" r="18"/>
  </g>
  <g fill="#3fa37a">
    <path d="M215 174l5 10 11 2-8 8 2 11-10-6-10 6 2-11-8-8 11-2 5-10z"/>
    <path d="M345 134l5 10 11 2-8 8 2 11-10-6-10 6 2-11-8-8 11-2 5-10z"/>
    <path d="M475 94l5 10 11 2-8 8 2 11-10-6-10 6 2-11-8-8 11-2 5-10z"/>
  </g>
</svg>
